<?xml version="1.0" standalone="no"?>
<!DOCTYPE svg PUBLIC "-//W3C//DTD SVG 20010904//EN"
 "http://www.w3.org/TR/2001/REC-SVG-20010904/DTD/svg10.dtd">
<svg version="1.0" xmlns="http://www.w3.org/2000/svg"
 width="1028.000000pt" height="1028.000000pt" viewBox="0 0 1028.000000 1028.000000"
 preserveAspectRatio="xMidYMid meet">
<metadata>
Created by potrace 1.14, written by Peter Selinger 2001-2017
</metadata>
<g transform="translate(0.000000,1028.000000) scale(0.100000,-0.100000)"
fill="#000000" stroke="none">
<path d="M890 9749 c-83 -10 -135 -35 -187 -93 -89 -97 -81 381 -79 -4541 l2
-4360 26 -56 c34 -72 110 -142 175 -160 40 -11 702 -13 3766 -14 l3719 -2 26
-34 c89 -114 184 -190 317 -254 287 -138 621 -117 880 57 172 115 298 288 362
495 24 79 27 104 27 243 1 132 -3 167 -22 233 -45 156 -113 275 -223 388 l-61
64 -2 3905 -2 3905 -25 55 c-33 71 -111 143 -176 161 -40 11 -783 13 -4258 14
-2316 0 -4235 -2 -4265 -6z m8410 -329 c8 -38 4 -1429 -3 -1437 -11 -11 -8348
-9 -8355 1 -3 6 -6 335 -6 733 l-1 722 25 3 c14 2 1895 3 4180 3 l4155 0 5
-25z m-10 -1759 c13 -1 15 -329 15 -2887 l0 -2886 -35 7 c-133 24 -176 27
-280 21 -236 -12 -429 -102 -596 -279 -179 -188 -268 -457 -234 -706 6 -46 9
-86 6 -89 -4 -3 -1631 -6 -3616 -6 -3603 -1 -3610 -1 -3611 19 -5 110 -3 6793
2 6800 5 7 1405 9 4171 8 2289 0 4170 -2 4178 -2z m373 -6315 c31 -28 42 -65
32 -103 -8 -34 -645 -676 -688 -694 -23 -10 -38 -9 -80 4 -46 15 -72 37 -220
185 -153 153 -169 172 -174 210 -5 38 -2 45 30 77 38 38 78 46 120 23 12 -6
67 -56 123 -112 56 -56 113 -112 128 -126 l27 -24 292 292 293 292 45 0 c35 0
52 -6 72 -24z"/>
<path d="M7754 9183 c-31 -6 -100 -68 -119 -106 -30 -61 -31 -110 0 -168 15
-29 33 -59 41 -67 20 -20 108 -52 142 -52 32 0 104 32 131 57 52 49 75 144 51
207 -5 14 -28 46 -51 71 -53 57 -111 75 -195 58z"/>
<path d="M8680 9161 c-19 -10 -48 -35 -65 -55 -26 -32 -30 -47 -33 -110 -4
-69 -3 -74 30 -116 47 -62 90 -85 160 -85 198 0 263 276 86 366 -49 25 -132
25 -178 0z"/>
<path d="M1384 8740 c-66 -27 -84 -117 -35 -172 l29 -33 2687 0 2687 0 29 33
c40 45 40 99 0 144 l-29 33 -2674 2 c-1470 1 -2683 -2 -2694 -7z"/>
<path d="M4780 7404 c-313 -37 -584 -105 -860 -216 -1073 -433 -1840 -1436
-1975 -2583 -20 -170 -20 -595 0 -761 14 -123 69 -396 104 -514 119 -413 341
-828 622 -1164 97 -116 349 -361 457 -446 311 -242 623 -411 982 -531 813
-272 1686 -207 2460 181 622 312 1148 853 1445 1486 147 312 231 606 287 999
17 121 17 599 0 730 -54 418 -157 755 -336 1100 -179 346 -387 620 -671 884
-451 419 -1013 698 -1626 807 -145 25 -174 27 -504 29 -192 2 -366 1 -385 -1z"/>
</g>
</svg>
